{"title":"Live_Music_Performances_From_Talk_Shows And_MP3","uid":6132470,"size":2005061386,"categoryP":"video","categoryS":"hd___tv_shows","magnet":"?xt=urn:btih:a20ee8893a0a715bf77fbcf19a6683aec3cc4fa2&amp;dn=Live_Music_Performances_From_Talk_Shows+And_MP3&amp;tr=udp%3A%2F%2Ftracker.openbittorrent.com%3A80&amp;tr=udp%3A%2F%2Fopen.demonii.com%3A1337&amp;tr=udp%3A%2F%2Ftracker.coppersurfer.tk%3A6969&amp;tr=udp%3A%2F%2Fexodus.desync.com%3A6969","seeders":0,"leechers":1,"uploader":"thetorrentlord","files":35,"time":1296181213,"description":"All the videos except Gretchen Wilson (which is from a SD broadcast as there was no HD in 2005) are 720p. Some of the MP3's are 320 and some are only 112. There are a couple of info files in the torrent. Hope these are enjoyed and shared by all. Don't hit and run.  ********************************************************************************************************************\t\t\t\t\t\t\t C_Ferguson_Nellie_McKay_SONG_ONLY_20101211.avi\nFormat                           : AVI\nFormat/Info                      : Audio Video Interleave\nFile size                        : 111 MiB\nDuration                         : 6mn 55s\nOverall bit rate                 : 2 243 Kbps\nMovie name                       : C_Ferguson_Nellie_McKay_SONG_ONLY_20101211.mpg\nDirector                         : created.with.SUPER(C).v2010.bld.37\nWriting application              : SUPER(C)   \n\nVideo\nID                               : 0\nFormat                           : MPEG-4 Visual\nFormat profile                   : Simple@L3\nFormat settings, BVOP            : No\nFormat settings, QPel            : No\nFormat settings, GMC             : No warppoints\nFormat settings, Matrix          : Default (H.263)\nCodec ID                         : XVID\nCodec ID/Hint                    : XviD\nDuration                         : 3mn 27s\nBit rate                         : 4 361 Kbps\nWidth                            : 1 280 pixels\nHeight                           : 720 pixels\nDisplay aspect ratio             : 16:9\nFrame rate                       : 29.970 fps\nColor space                      : YUV\nChroma subsampling               : 4:2:0\nBit depth                        : 8 bits\nScan type                        : Progressive\nBits/(Pixel*Frame)               : 0.158\nStream size                      : 108 MiB (97%)\nWriting library                  : XviD 1.1.2 (UTC 2006-11-01)\n\nAudio\nID                               : 1\nFormat                           : MPEG Audio\nFormat version                   : Version 2\nFormat profile                   : Layer 3\nMode                             : Joint stereo\nMode extension                   : MS Stereo\nCodec ID                         : 55\nCodec ID/Hint                    : MP3\nDuration                         : 6mn 55s\nBit rate mode                    : Constant\nBit rate                         : 112 Kbps\nChannel(s)                       : 2 channels\nSampling rate                    : 22.05 KHz\nStream size                      : 2.77 MiB (2%)\nAlignment                        : Aligned on interleaves\nInterleave, duration             : 26 ms (0.78 video frame)\nWriting library                  : LAME3.98","torrent":{"xt":"urn:btih:a20ee8893a0a715bf77fbcf19a6683aec3cc4fa2","amp;dn":"Live_Music_Performances_From_Talk_Shows+And_MP3","amp;tr":["udp%3A%2F%2Ftracker.openbittorrent.com%3A80","udp%3A%2F%2Fopen.demonii.com%3A1337","udp%3A%2F%2Ftracker.coppersurfer.tk%3A6969","udp%3A%2F%2Fexodus.desync.com%3A6969"],"infoHash":"a20ee8893a0a715bf77fbcf19a6683aec3cc4fa2","infoHashBuffer":{"type":"Buffer","data":[162,14,232,137,58,10,113,91,247,127,188,241,154,102,131,174,195,204,79,162]},"announce":[],"urlList":[]}}